<svg xmlns="http://www.w3.org/2000/svg" viewBox="0 0 310.1 289.9"><style type="text/css">.pattern{fill:none;stroke:#e7e8e9;stroke-miterlimit:10;stroke-width:.1rem</style><path class="pattern" d="M57.7 267.1c-29.7 9.8-46.3-11.2-53.9-23.3s-1.9-46.8 27.4-72.4S74 158 85.9 140.4s33.1-33.9 12.9-74.3 6.4-70.8 39.7-64.5 160.7 43 149.7 73.8c-11 30.8-15.6 34.6-5.3 51.5 10.3 16.9 48.1 98.1 9.1 127.9s-57.9 38.7-78.5 32.7C193 281.3 104.3 251.7 57.7 267.1zM111.2 83.5c-15.3-34.3 9.5-60.3 38.5-54.6C179 34.8 282.8 66 274.4 92.5c-8.1 25.4-11.7 28.9-3.6 43.2 9.1 16 38.7 83.6 7.4 107.8 -28.6 22.1-45.2 30.4-61.7 27.6 -1.6-0.3-3.3-0.7-4.9-1.2 -15.1-4.6-67.1-22.6-106.3-20.2 -9.1 0.6-17.6 1.9-24.9 4.4 -24.7 8.2-38.9-9.1-45.6-19.8 -7-11.2-2.9-40.8 20.8-62.5 23.3-21.4 34.4-12.1 44.2-26.8C109.6 130.2 126.1 116.8 111.2 83.5zM123.6 100.9c-10.4-28.3 12.7-49.8 37.2-44.6 25.1 5.4 105.4 31.2 99.6 53.4 -5.3 20-8 23.3-1.9 35 7.9 15.2 29.3 69 5.6 87.6 -21.9 17.2-36.2 24-50.7 21.2 -1.3-0.3-2.7-0.6-4-1 -13.5-4.3-55.8-19.7-86.6-15.7 -7.3 0.9-14.1 2.4-20 4.4 -19.7 6.6-31.5-7.1-37.2-16.3 -6.4-10.3-4-34.7 14.2-52.7 17.3-17.1 26.1-10.6 33.7-22.4C121.3 137.7 133.3 127 123.6 100.9zM136 118.3c-5.5-22.6 15.8-39.4 36-34.6 21 5 77.7 25.2 74.5 43.3 -2.6 14.6-4.3 17.7-0.2 26.8 6.6 14.4 19.9 54.5 3.9 67.4 -15.3 12.3-27.2 17.7-39.7 14.8 -1-0.2-2.1-0.5-3.1-0.8 -11.8-4-44.5-16.8-66.9-11.2 -5.4 1.3-10.5 2.8-15.1 4.4 -14.6 5.1-24.1-5.1-28.9-12.8 -5.8-9.4-5.1-28.6 7.7-42.8 11.4-12.7 17.8-9.2 23.1-18.1C133.1 145.1 140.6 137 136 118.3zM148.4 135.7c2.7-17.3 18.9-28.9 34.8-24.7 17 4.6 49.7 19 49.5 33.1 -0.2 8.9-0.8 12.3 1.5 18.5 5.1 13.8 10.5 40 2.1 47.2 -8.6 7.5-18.3 11.4-28.7 8.4 -0.7-0.2-1.4-0.4-2.2-0.7 -10.1-3.7-33.2-13.7-47.2-6.8 -3.6 1.8-7 3.3-10.2 4.5 -9.6 3.5-16.6-3.1-20.5-9.3 -5.3-8.6-6.1-22.3 1.1-32.9 5.5-8.1 9.4-7.8 12.6-13.7C144.8 152.6 150.6 146.4 148.4 135.7zM222.3 198.6c-1.7 2.8-9.4 5.3-17.7 2 -8.3-3.3-22.5-11.2-28.7-2.8 -6.2 8.4-13.3 5.3-17.4-1.4 -4.7-7.7-6.2-15.6-5.5-23.1 0.7-7.5 3.6-14.4 7.8-20.2 8.4-11.6 22-18.4 33.5-14.7 17.3 5.5 24.7 19.9 27.6 33.2C224.8 184.9 223.2 197.2 222.3 198.6zM57.7 267.1c-29.7 9.8-46.3-11.2-53.9-23.3s-1.9-46.8 27.4-72.4S74 158 85.9 140.4s33.1-33.9 12.9-74.3 6.4-70.8 39.7-64.5 160.7 43 149.7 73.8c-11 30.8-15.6 34.6-5.3 51.5 10.3 16.9 48.1 98.1 9.1 127.9s-57.9 38.7-78.5 32.7C193 281.3 104.3 251.7 57.7 267.1zM111.2 83.5c-15.3-34.3 9.5-60.3 38.5-54.6C179 34.8 282.8 66 274.4 92.5c-8.1 25.4-11.7 28.9-3.6 43.2 9.1 16 38.7 83.6 7.4 107.8 -28.6 22.1-45.2 30.4-61.7 27.6 -1.6-0.3-3.3-0.7-4.9-1.2 -15.1-4.6-67.1-22.6-106.3-20.2 -9.1 0.6-17.6 1.9-24.9 4.4 -24.7 8.2-38.9-9.1-45.6-19.8 -7-11.2-2.9-40.8 20.8-62.5 23.3-21.4 34.4-12.1 44.2-26.8C109.6 130.2 126.1 116.8 111.2 83.5zM123.6 100.9c-10.4-28.3 12.7-49.8 37.2-44.6 25.1 5.4 105.4 31.2 99.6 53.4 -5.3 20-8 23.3-1.9 35 7.9 15.2 29.3 69 5.6 87.6 -21.9 17.2-36.2 24-50.7 21.2 -1.3-0.3-2.7-0.6-4-1 -13.5-4.3-55.8-19.7-86.6-15.7 -7.3 0.9-14.1 2.4-20 4.4 -19.7 6.6-31.5-7.1-37.2-16.3 -6.4-10.3-4-34.7 14.2-52.7 17.3-17.1 26.1-10.6 33.7-22.4C121.3 137.7 133.3 127 123.6 100.9zM136 118.3c-5.5-22.6 15.8-39.4 36-34.6 21 5 77.7 25.2 74.5 43.3 -2.6 14.6-4.3 17.7-0.2 26.8 6.6 14.4 19.9 54.5 3.9 67.4 -15.3 12.3-27.2 17.7-39.7 14.8 -1-0.2-2.1-0.5-3.1-0.8 -11.8-4-44.5-16.8-66.9-11.2 -5.4 1.3-10.5 2.8-15.1 4.4 -14.6 5.1-24.1-5.1-28.9-12.8 -5.8-9.4-5.1-28.6 7.7-42.8 11.4-12.7 17.8-9.2 23.1-18.1C133.1 145.1 140.6 137 136 118.3zM148.4 135.7c2.7-17.3 18.9-28.9 34.8-24.7 17 4.6 49.7 19 49.5 33.1 -0.2 8.9-0.8 12.3 1.5 18.5 5.1 13.8 10.5 40 2.1 47.2 -8.6 7.5-18.3 11.4-28.7 8.4 -0.7-0.2-1.4-0.4-2.2-0.7 -10.1-3.7-33.2-13.7-47.2-6.8 -3.6 1.8-7 3.3-10.2 4.5 -9.6 3.5-16.6-3.1-20.5-9.3 -5.3-8.6-6.1-22.3 1.1-32.9 5.5-8.1 9.4-7.8 12.6-13.7C144.8 152.6 150.6 146.4 148.4 135.7zM222.3 198.6c-1.7 2.8-9.4 5.3-17.7 2 -8.3-3.3-22.5-11.2-28.7-2.8 -6.2 8.4-13.3 5.3-17.4-1.4 -4.7-7.7-6.2-15.6-5.5-23.1 0.7-7.5 3.6-14.4 7.8-20.2 8.4-11.6 22-18.4 33.5-14.7 17.3 5.5 24.7 19.9 27.6 33.2C224.8 184.9 223.2 197.2 222.3 198.6z"/></svg>







