<svg xmlns="http://www.w3.org/2000/svg" viewBox="0 0 378.6 272.4"><style type="text/css">.pattern{fill:none;stroke:#e7e8e9;stroke-miterlimit:10;stroke-width:.1rem</style><path class="pattern" d="M279.2 269.2c-70.8 18.1-156.3-59.6-168.7-78.4 -16.2-24.6-4.7-59.7-39-78.1C37.6 94.4 23 93.8 12.2 76.3 -26.4 13.6 37.4-2.2 104.3 0.9c64.3 3 44.4 16.7 101 28.3s101.6-24.5 142.8 38S405.7 236.7 279.2 269.2zM272.3 247.4c-60 15.4-132.6-50.6-143.1-66.5 -13.8-20.9-4-50.7-33.1-66.3C67.4 99.2 55 98.7 45.8 83.8c-32.8-53.2 21.4-66.6 78.1-64 54.5 2.5 37.7 14.2 85.7 24S295.8 23 330.7 76 379.7 219.9 272.3 247.4zM265.4 225.6C216.1 238.3 156.6 184.1 148 171c-11.3-17.1-3.3-41.6-27.2-54.4C97.2 103.9 87 103.5 79.5 91.3 52.6 47.6 97 36.6 143.6 38.7c44.8 2.1 31 11.6 70.4 19.7s70.7-17.1 99.5 26.5S353.6 203 265.4 225.6zM258.6 203.8c-38.6 9.9-85.1-32.5-91.9-42.7 -8.8-13.4-2.6-32.5-21.2-42.6 -18.5-9.9-26.5-10.3-32.3-19.8C92 64.6 126.8 56 163.3 57.7c35 1.6 24.2 9.1 55 15.4 30.8 6.3 55.3-13.3 77.8 20.7S327.5 186.2 258.6 203.8zM251.7 182.1c-27.8 7.1-61.4-23.4-66.3-30.8 -6.4-9.7-1.9-23.5-15.3-30.7 -13.3-7.2-19.1-7.4-23.3-14.3 -15.2-24.6 9.9-30.9 36.2-29.7 25.3 1.2 17.5 6.6 39.7 11.1s39.9-9.6 56.1 14.9S301.4 169.3 251.7 182.1zM244.8 160.3c-17.1 4.4-37.7-14.4-40.7-18.9 -3.9-5.9-1.1-14.4-9.4-18.9 -8.2-4.4-11.7-4.5-14.3-8.8 -9.3-15.1 6.1-19 22.2-18.2 15.5 0.7 10.7 4 24.4 6.8s24.5-5.9 34.5 9.2S275.4 152.5 244.8 160.3z"/></svg>