<svg xmlns="http://www.w3.org/2000/svg" viewBox="0 0 83.77 64.94"><defs><style>.cls-1{fill:#498bc9;}</style></defs><title>logo-small_smart-blue_logomark+wordmark_vertical</title><g id="logo_v1"><path class="cls-1" d="M62.85,37a1.62,1.62,0,0,1-1.62-1.62V24.92A2.39,2.39,0,0,0,58,22.68a1.62,1.62,0,1,1-1.12-3,5.64,5.64,0,0,1,7.58,5.29V35.35A1.62,1.62,0,0,1,62.85,37Z"/><path class="cls-1" d="M53.81,37a1.62,1.62,0,0,1-1.62-1.62V24.92a2.39,2.39,0,1,0-4.77,0v6.42a5.63,5.63,0,0,1-11.27,0V20.91a1.62,1.62,0,1,1,3.25,0V31.34a2.39,2.39,0,0,0,4.77,0V24.92a5.63,5.63,0,1,1,11.27,0V35.35A1.62,1.62,0,0,1,53.81,37Z"/><path class="cls-1" d="M34.79,45.65a.32.32,0,0,1-.32-.32v-2c0-.91,0-2,2-2a.32.32,0,0,1,0,.63c-1.32,0-1.32.39-1.32,1.32v2A.32.32,0,0,1,34.79,45.65Z"/><path class="cls-1" d="M31.79,45.65A1.9,1.9,0,0,1,30,43.52a1.93,1.93,0,0,1,2-2.11c1.73,0,1.73,1.31,1.73,1.94v2a.32.32,0,0,1-.63,0v0A2,2,0,0,1,31.79,45.65Zm.14-3.6a1.31,1.31,0,0,0-1.34,1.48c0,1.1.65,1.49,1.21,1.49.89,0,1.23-.37,1.23-1.31v-.35C33,42.45,32.86,42,31.93,42Z"/><path class="cls-1" d="M52.49,45.65a.32.32,0,0,1-.32-.32v-2c0-.91,0-2,2-2a.32.32,0,0,1,0,.63c-1.32,0-1.32.39-1.32,1.32v2A.32.32,0,0,1,52.49,45.65Z"/><path class="cls-1" d="M45.7,41.46a1.46,1.46,0,0,0-1.4.44,1.46,1.46,0,0,0-1.4-.44c-1.07.27-1.07,1.12-1.07,1.86v2a.32.32,0,1,0,.63,0v-2c0-.78,0-1.1.6-1.25a.72.72,0,0,1,.34,0c.57.14.6.47.6,1.25v2a.32.32,0,1,0,.63,0v-2c0-.78,0-1.1.6-1.25a.72.72,0,0,1,.34,0c.57.14.6.47.6,1.25v2a.32.32,0,1,0,.63,0v-2C46.78,42.57,46.78,41.73,45.7,41.46Z"/><path class="cls-1" d="M55.6,45.65a.32.32,0,0,1-.32-.32V41.73a.32.32,0,0,1,.63,0v3.61A.32.32,0,0,1,55.6,45.65Z"/><path class="cls-1" d="M49.46,45.65a1.9,1.9,0,0,1-1.84-2.12,1.93,1.93,0,0,1,2-2.11c1.73,0,1.73,1.31,1.73,1.94v2a.32.32,0,0,1-.63,0v0A2,2,0,0,1,49.46,45.65ZM49.6,42a1.31,1.31,0,0,0-1.34,1.48c0,1.1.65,1.49,1.21,1.49.89,0,1.23-.37,1.23-1.31v-.35C50.69,42.45,50.54,42,49.6,42Z"/><path class="cls-1" d="M59.68,45.64a.32.32,0,0,1-.32-.32v-2c0-.78,0-1.1-.59-1.25a1.58,1.58,0,0,0-.78,0c-.57.15-.59.47-.59,1.25v2a.32.32,0,0,1-.63,0v-2c0-.74,0-1.59,1.07-1.86a2.21,2.21,0,0,1,1.09,0C60,41.75,60,42.59,60,43.34v2A.32.32,0,0,1,59.68,45.64Z"/><path class="cls-1" d="M62.68,45.65a1.85,1.85,0,0,1-1.83-1.85.32.32,0,0,1,0-.09h0q0-.09,0-.18a1.93,1.93,0,0,1,2-2.11A1.64,1.64,0,0,1,64.48,43a.73.73,0,0,1-.23.58c-.39.38-1.28.55-2.7.5a1.16,1.16,0,0,0,1.15,1,1.18,1.18,0,0,0,1-.36.32.32,0,1,1,.5.38A1.78,1.78,0,0,1,62.68,45.65Zm-1.21-2.22c1.73.07,2.2-.19,2.32-.32a.11.11,0,0,0,0-.1v0a1,1,0,0,0-1-.93A1.29,1.29,0,0,0,61.48,43.43Z"/><path class="cls-1" d="M28.05,41.46a1.46,1.46,0,0,0-1.4.44,1.46,1.46,0,0,0-1.4-.44c-1.07.27-1.07,1.12-1.07,1.86v2a.32.32,0,1,0,.63,0v-2c0-.78,0-1.1.6-1.25a.72.72,0,0,1,.34,0c.57.14.6.47.6,1.25v2a.32.32,0,1,0,.63,0v-2c0-.78,0-1.1.6-1.25a.72.72,0,0,1,.34,0c.57.14.6.47.6,1.25v2a.32.32,0,1,0,.63,0v-2C29.12,42.57,29.12,41.73,28.05,41.46Z"/><path class="cls-1" d="M38.83,45c-.61-.14-.63-.47-.63-1.26v-1h.59a.32.32,0,0,0,0-.63h-.59v-1a.32.32,0,0,0-.63,0V43.7c0,.76,0,1.62,1.12,1.87h.07a.32.32,0,0,0,.07-.62Z"/><path class="cls-1" d="M21.31,45.64a5.39,5.39,0,0,1-1.82-.29.32.32,0,0,1,.23-.59,4.86,4.86,0,0,0,1.59.24c.52,0,1.39-.07,1.39-.57s-.76-.51-1.32-.55h-.09c-.65-.05-2-.16-2-1.23a1,1,0,0,1,.4-.79,3.82,3.82,0,0,1,2.79-.29l.26.06a.32.32,0,0,1-.15.61l-.26-.06a3.3,3.3,0,0,0-2.25.18.36.36,0,0,0-.16.3c0,.44.68.55,1.41.61h.08c.52,0,1.91.13,1.91,1.18C23.32,44.88,23.06,45.64,21.31,45.64Z"/></g></svg>