<?xml version="1.0" standalone="no"?>
<!DOCTYPE svg PUBLIC "-//W3C//DTD SVG 20010904//EN"
 "http://www.w3.org/TR/2001/REC-SVG-20010904/DTD/svg10.dtd">
<svg version="1.0" xmlns="http://www.w3.org/2000/svg"
 width="700.000000pt" height="700.000000pt" viewBox="0 0 700.000000 700.000000"
 preserveAspectRatio="xMidYMid meet">
<metadata>
Created by potrace 1.14, written by Peter Selinger 2001-2017
</metadata>
<g transform="translate(0.000000,700.000000) scale(0.100000,-0.100000)"
fill="#000000" stroke="none">
<path d="M1390 3500 l0 -2110 430 0 430 0 0 810 0 810 484 0 c505 0 641 -7
766 -41 212 -57 294 -172 330 -459 6 -47 13 -318 17 -602 l6 -518 439 0 439 0
-4 638 c-4 698 -7 733 -67 912 -64 194 -171 314 -371 419 -81 43 -89 50 -68
56 109 34 292 155 366 242 185 220 286 570 254 878 -17 155 -44 252 -111 390
-184 382 -472 591 -907 661 -97 16 -226 18 -1270 21 l-1163 4 0 -2111z m2160
1356 c206 -47 327 -156 385 -346 26 -86 31 -280 11 -373 -47 -208 -164 -317
-398 -369 -87 -19 -132 -21 -695 -25 l-603 -5 0 572 0 571 613 -4 c532 -3 622
-6 687 -21z"/>
<path d="M6529 5583 c-13 -33 -1379 -3856 -1450 -4056 l-48 -137 462 0 462 0
523 1494 522 1495 0 615 0 616 -230 0 -230 0 -11 -27z"/>
</g>
</svg>
