
<svg xmlns="http://www.w3.org/2000/svg" viewBox="0 0 10 10"><path d="M9.1 0c0 0-3.3 0-3.2 0C5.4 0 5 0.3 5 1.1v0.4C5 1.8 5.2 2 5.5 2h0C5.8 2 6 1.8 6 1.5v0C6 1.2 6.2 1 6.5 1h2C8.8 1 9 1.2 9 1.5v7C9 8.8 8.8 9 8.5 9h-2C6.2 9 6 8.8 6 8.5v0C6 8.2 5.8 8 5.5 8h0C5.2 8 5 8.2 5 8.5v0.6C5 9.6 5.4 10 5.9 10c1.9 0 1.4 0 3.2 0h0C9.6 10 10 9.6 10 9.1V9.1c0-0.2 0-8.4 0-8.2C10 0.4 9.6 0 9.1 0L9.1 0zM3.3 2.9L3.3 2.9c-0.2 0.2-0.2 0.5 0 0.7l0.5 0.5c0.1 0.2 0 0.4-0.2 0.4H0.5C0.2 4.5 0 4.7 0 5v0c0 0.3 0.2 0.5 0.5 0.5h3.1c0.2 0 0.3 0.3 0.2 0.4L3.3 6.4c-0.2 0.2-0.2 0.5 0 0.7l0 0c0.2 0.2 0.5 0.2 0.7 0l1.3-1.4c0.4-0.4 0.4-1 0-1.4L4 2.9C3.8 2.7 3.5 2.7 3.3 2.9z"/></svg>