<svg xmlns="http://www.w3.org/2000/svg" viewBox="0 0 15.5 10"><path d="M14.7 1.7H4.5C4.1 1.7 3.8 1.4 3.8 1s0.3-0.8 0.8-0.8h10.2c0.4 0 0.8 0.3 0.8 0.8S15.1 1.7 14.7 1.7z"/><path class="st0" d="M14.7 5.7H4.5C4.1 5.7 3.8 5.4 3.8 5s0.3-0.8 0.8-0.8h10.2c0.4 0 0.8 0.3 0.8 0.8S15.1 5.7 14.7 5.7z"/><path class="st0" d="M14.7 9.7H4.5C4.1 9.7 3.8 9.4 3.8 9s0.3-0.8 0.8-0.8h10.2c0.4 0 0.8 0.3 0.8 0.8S15.1 9.7 14.7 9.7z"/><circle class="st0" cx="1" cy="1" r="1"/><circle class="st0" cx="1" cy="5" r="1"/><circle class="st0" cx="1" cy="9" r="1"/></svg>