<svg xmlns="http://www.w3.org/2000/svg" viewBox="0 0 12 12"><path d="M11.8 3.5L8.6 0.2C8.4 0.1 8.3 0 8.1 0H3.6v0C2.9 0 2.4 0.6 2.4 1.2v0 7.2c0 0.7 0.5 1.2 1.2 1.2v0h7.2v0c0.7 0 1.2-0.5 1.2-1.2V3.9C12 3.7 11.9 3.6 11.8 3.5zM10.8 7.8c0 0.3-0.3 0.5-0.6 0.5h-6c-0.3 0-0.6-0.2-0.6-0.5v-6c0-0.3 0.3-0.7 0.6-0.7h3v2.5c0 0.7 0.5 1.1 1.2 1.1h2.4V7.8zM9.6 11.4L9.6 11.4C9.6 11.7 9.3 12 9 12H1.2v0C0.5 12 0 11.5 0 10.8V3.1c0-0.3 0.3-0.6 0.6-0.6 0.3 0 0.6 0.3 0.6 0.6v7.2c0 0.3 0.3 0.5 0.6 0.5H9C9.3 10.8 9.6 11.1 9.6 11.4z"/></svg>