<svg xmlns="http://www.w3.org/2000/svg" viewBox="0 0 10 10"><path d="M10 9.1c0 0 0-3.3 0-3.2C10 5.4 9.7 5 8.9 5H8.5C8.2 5 8 5.2 8 5.5v0C8 5.8 8.2 6 8.5 6h0C8.8 6 9 6.2 9 6.5v2C9 8.8 8.8 9 8.5 9h-7C1.2 9 1 8.8 1 8.5v-2C1 6.2 1.2 6 1.5 6h0C1.8 6 2 5.8 2 5.5v0C2 5.2 1.8 5 1.5 5H0.9C0.4 5 0 5.4 0 5.9c0 1.9 0 1.4 0 3.2v0C0 9.6 0.4 10 0.9 10h0.1c0.2 0 8.4 0 8.2 0C9.6 10 10 9.6 10 9.1L10 9.1zM2.9 2.3L2.9 2.3c0.2 0.2 0.5 0.2 0.7 0l0.5-0.5c0.2-0.1 0.4 0 0.4 0.2v3.1c0 0.3 0.2 0.5 0.5 0.5h0c0.3 0 0.5-0.2 0.5-0.5V2.1c0-0.2 0.3-0.3 0.4-0.2l0.5 0.5c0.2 0.2 0.5 0.2 0.7 0l0 0c0.2-0.2 0.2-0.5 0-0.7L5.7 0.3c-0.4-0.4-1-0.4-1.4 0L2.9 1.6C2.7 1.8 2.7 2.1 2.9 2.3z"/></svg>