<svg xmlns="http://www.w3.org/2000/svg" viewBox="0 0 10 10"><path d="M9.9 2.9L7.1 0.1C7.1 0.1 6.9 0 6.8 0H1C0.4 0 0 0.4 0 1v8c0 0.6 0.4 1 1 1h8c0.6 0 1-0.4 1-1V3.2C10 3.1 9.9 2.9 9.9 2.9zM9 8.5C9 8.8 8.8 9 8.5 9h-7C1.2 9 1 8.8 1 8.5v-7C1 1.2 1.2 1 1.5 1H6v2c0 0.6 0.4 1 1 1h2V8.5zM2 3.5v-1C2 2.2 2.2 2 2.5 2h2C4.8 2 5 2.2 5 2.5v1C5 3.8 4.8 4 4.5 4h-2C2.2 4 2 3.8 2 3.5zM2.5 5h5C7.8 5 8 5.2 8 5.5S7.8 6 7.5 6h-5C2.2 6 2 5.8 2 5.5S2.2 5 2.5 5zM8 7.5C8 7.8 7.8 8 7.5 8h-5C2.2 8 2 7.8 2 7.5S2.2 7 2.5 7h5C7.8 7 8 7.2 8 7.5z"/></svg>