<svg xmlns="http://www.w3.org/2000/svg" viewBox="0 0 97.6 15"><polygon  points="7.8 0.8 7.8 6.6 2.6 6.6 2.6 0.8 0 0.8 0 14.8 2.7 14.8 2.6 8.9 7.8 8.9 7.8 14.8 10.5 14.8 10.5 0.8 "/><path  d="M19.8 8.5c0-2.2-0.7-4.1-4-4.1 -3.3 0-4.2 1.8-4.2 4l0 2.7c0 2.5 1.1 3.9 4.3 3.9 1.2 0 2.6-0.2 3.8-0.7l-0.4-1.9c-1.1 0.3-2.1 0.5-3.1 0.5 -1.6 0-2-0.5-2-1.7l0-0.5 5.7 0L19.8 8.5zM14.2 8.6V8.1c0-1 0.4-1.6 1.7-1.6 1.3 0 1.6 0.7 1.6 1.6v0.5L14.2 8.6z"/><path  d="M24.1 4.4c-1.1 0-2.5 0.2-3.5 0.5l0.3 2c0.9-0.2 1.9-0.3 2.8-0.3 1.6 0 2 0.4 2 1.5l0 1.1 -2.5 0c-2.1 0-3 0.8-3 2.9 0 1.8 0.8 3 2.7 3 1 0 2.1-0.3 3-0.9l0.2 0.7 2.1 0 0-6.7C28.3 5.5 27.3 4.3 24.1 4.4zM23.8 13c-0.8 0-1-0.3-1-1 0-0.8 0.2-1 1.1-1l1.9 0 0 1.5C25.2 12.7 24.5 13 23.8 13z"/><rect x="33.4" y="0.8"  width="2.6" height="14"/><polygon  points="43.8 0.8 40.8 0.8 36.4 7.7 41 14.8 44.1 14.8 39.4 7.7 "/><path  d="M48.6 4.3c-3.5 0-4.5 1.9-4.5 4l0 2.6c0 2.1 0.9 4 4.5 4 3.5 0 4.5-1.9 4.5-4l0-2.6C53.1 6.3 52.1 4.3 48.6 4.3zM48.6 12.8c-1.4 0-1.9-0.6-1.9-1.8l0-2.8c0-1.2 0.5-1.8 1.9-1.8 1.4 0 1.9 0.6 1.9 1.8l0 2.8C50.5 12.2 50 12.8 48.6 12.8z"/><path  d="M60.2 0.4l0 4.3c-0.8-0.2-1.8-0.3-2.7-0.3 -2.4 0-3.4 1.3-3.4 3.6l0 3.5c0 2.3 1.1 3.5 3.2 3.5 1.3 0 2.3-0.4 3.2-1.1l0.3 0.9 2 0 0-14.8L60.2 0.4zM57.9 12.8c-0.9 0-1.3-0.5-1.3-1.3l0-3.6c0-0.9 0.4-1.4 1.3-1.4 0.7 0 1.6 0.1 2.3 0.3l0 5.1C59.7 12.4 58.8 12.8 57.9 12.8z"/><path  d="M68.1 4.3c-1.1 0-2.5 0.2-3.5 0.5l0.3 2c0.9-0.2 1.9-0.3 2.8-0.3 1.6 0 2 0.4 2 1.5l0 1.1 -2.5 0c-2.1 0-3 0.8-3 2.9 0 1.8 0.8 3 2.7 3 1 0 2.1-0.3 3-0.9l0.2 0.7 2.1 0 0-6.7C72.2 5.5 71.3 4.3 68.1 4.3zM67.8 12.9c-0.8 0-1-0.3-1-1 0-0.8 0.2-1 1.1-1l1.9 0 0 1.5C69.2 12.7 68.5 12.9 67.8 12.9z"/><path  d="M80.2 4.3c-1.2 0-2.8 0.4-4.1 1.1l-0.3-0.9 -2 0 0 10.2 2.6 0 0-7.1c0.9-0.5 2-0.9 2.7-0.9 0.6 0 0.8 0.3 0.8 0.8l0 7.1 2.6 0 0-7.4C82.5 5.5 81.9 4.3 80.2 4.3z"/><rect x="84.3" y="4.5"  width="2.6" height="10.2"/><rect x="84.3" y="0.1"  width="2.6" height="3"/><polygon  points="88.8 0.4 88.8 14.8 91.3 14.8 91.3 0 "/><polygon  points="94.5 9.6 97.5 4.5 94.6 4.5 91.7 9.6 94.8 14.8 97.6 14.8 "/></svg>